<?xml version="1.0" encoding="utf-8"?><!-- Uploaded to: SVG Repo, www.svgrepo.com, Generator: SVG Repo Mixer Tools -->
<svg fill="#000000" width="800px" height="800px" viewBox="0 0 24 24" id="loading" data-name="Flat Color" xmlns="http://www.w3.org/2000/svg" class="icon flat-color"><path id="primary" d="M17,6V3a1,1,0,0,0-1-1H8A1,1,0,0,0,7,3V6a7,7,0,0,0,2.8,5.6l.53.4-.53.4A7,7,0,0,0,7,18v3a1,1,0,0,0,1,1h8a1,1,0,0,0,1-1V18a7,7,0,0,0-2.8-5.6l-.53-.4.53-.4A7.05,7.05,0,0,0,17,6Z" style="fill: rgb(0, 0, 0);"></path><path id="secondary" d="M18,22H6a1,1,0,0,1,0-2H18a1,1,0,0,1,0,2ZM18,4H6A1,1,0,0,1,6,2H18a1,1,0,0,1,0,2Z" style="fill: rgb(44, 169, 188);"></path></svg>